<svg viewBox="0 0 220 220" version="1.1" xmlns="http://www.w3.org/2000/svg" xmlns:xlink="http://www.w3.org/1999/xlink" id="el_-NrCdNVjP"><style>@-webkit-keyframes kf_el_fHgpD7g6kg_an_t5tkUr3rt{0%{-webkit-transform: translate(84px, 98px) translate(-84px, -98px) translate(0px, 0px);transform: translate(84px, 98px) translate(-84px, -98px) translate(0px, 0px);}50%{-webkit-transform: translate(84px, 98px) translate(-84px, -98px) translate(0px, 15px);transform: translate(84px, 98px) translate(-84px, -98px) translate(0px, 15px);}100%{-webkit-transform: translate(84px, 98px) translate(-84px, -98px) translate(0px, 0px);transform: translate(84px, 98px) translate(-84px, -98px) translate(0px, 0px);}}@keyframes kf_el_fHgpD7g6kg_an_t5tkUr3rt{0%{-webkit-transform: translate(84px, 98px) translate(-84px, -98px) translate(0px, 0px);transform: translate(84px, 98px) translate(-84px, -98px) translate(0px, 0px);}50%{-webkit-transform: translate(84px, 98px) translate(-84px, -98px) translate(0px, 15px);transform: translate(84px, 98px) translate(-84px, -98px) translate(0px, 15px);}100%{-webkit-transform: translate(84px, 98px) translate(-84px, -98px) translate(0px, 0px);transform: translate(84px, 98px) translate(-84px, -98px) translate(0px, 0px);}}@-webkit-keyframes kf_el_vCEG-JdYtt_an_nf1psSRra{0%{-webkit-transform: translate(53px, 46.999874114990234px) translate(-53px, -46.999874114990234px) translate(0px, 0px);transform: translate(53px, 46.999874114990234px) translate(-53px, -46.999874114990234px) translate(0px, 0px);}50%{-webkit-transform: translate(53px, 46.999874114990234px) translate(-53px, -46.999874114990234px) translate(0px, -15px);transform: translate(53px, 46.999874114990234px) translate(-53px, -46.999874114990234px) translate(0px, -15px);}100%{-webkit-transform: translate(53px, 46.999874114990234px) translate(-53px, -46.999874114990234px) translate(0px, 0px);transform: translate(53px, 46.999874114990234px) translate(-53px, -46.999874114990234px) translate(0px, 0px);}}@keyframes kf_el_vCEG-JdYtt_an_nf1psSRra{0%{-webkit-transform: translate(53px, 46.999874114990234px) translate(-53px, -46.999874114990234px) translate(0px, 0px);transform: translate(53px, 46.999874114990234px) translate(-53px, -46.999874114990234px) translate(0px, 0px);}50%{-webkit-transform: translate(53px, 46.999874114990234px) translate(-53px, -46.999874114990234px) translate(0px, -15px);transform: translate(53px, 46.999874114990234px) translate(-53px, -46.999874114990234px) translate(0px, -15px);}100%{-webkit-transform: translate(53px, 46.999874114990234px) translate(-53px, -46.999874114990234px) translate(0px, 0px);transform: translate(53px, 46.999874114990234px) translate(-53px, -46.999874114990234px) translate(0px, 0px);}}#el_-NrCdNVjP *{-webkit-animation-duration: 2s;animation-duration: 2s;-webkit-animation-iteration-count: infinite;animation-iteration-count: infinite;-webkit-animation-timing-function: cubic-bezier(0, 0, 1, 1);animation-timing-function: cubic-bezier(0, 0, 1, 1);}#el_Z8el6cP_xM{stroke: none;stroke-width: 1;fill: none;}#el_gMX_C66fAR{fill: black;fill-opacity: 1;}#el_HsTbBCZPFv{stroke: #D8D8D8;stroke-width: 1;fill: #FFFFFF;}#el_fHgpD7g6kg{fill: #F59121;}#el_vCEG-JdYtt{fill: #EE4037;}#el_vCEG-JdYtt_an_nf1psSRra{-webkit-animation-fill-mode: backwards;animation-fill-mode: backwards;-webkit-transform: translate(53px, 46.999874114990234px) translate(-53px, -46.999874114990234px) translate(0px, 0px);transform: translate(53px, 46.999874114990234px) translate(-53px, -46.999874114990234px) translate(0px, 0px);-webkit-animation-name: kf_el_vCEG-JdYtt_an_nf1psSRra;animation-name: kf_el_vCEG-JdYtt_an_nf1psSRra;-webkit-animation-timing-function: cubic-bezier(0.42, 0, 1, 1);animation-timing-function: cubic-bezier(0.42, 0, 1, 1);}#el_fHgpD7g6kg_an_t5tkUr3rt{-webkit-animation-fill-mode: backwards;animation-fill-mode: backwards;-webkit-transform: translate(84px, 98px) translate(-84px, -98px) translate(0px, 0px);transform: translate(84px, 98px) translate(-84px, -98px) translate(0px, 0px);-webkit-animation-name: kf_el_fHgpD7g6kg_an_t5tkUr3rt;animation-name: kf_el_fHgpD7g6kg_an_t5tkUr3rt;-webkit-animation-timing-function: cubic-bezier(0.42, 0, 1, 1);animation-timing-function: cubic-bezier(0.42, 0, 1, 1);}</style>
    <!-- Generator: Sketch 56.2 (81672) - https://sketch.com -->
    <title>loader</title>
    <desc>Created with Sketch.</desc>
    <defs>
        <path d="M59.867991,15 L160.132009,15 C175.733587,15 181.391096,16.6244482 187.0948,19.6748223 C192.798504,22.7251964 197.274804,27.2014965 200.325178,32.9052002 C203.375552,38.6089039 205,44.2664131 205,59.867991 L205,160.132009 C205,175.733587 203.375552,181.391096 200.325178,187.0948 C197.274804,192.798504 192.798504,197.274804 187.0948,200.325178 C181.391096,203.375552 175.733587,205 160.132009,205 L59.867991,205 C44.2664131,205 38.6089039,203.375552 32.9052002,200.325178 C27.2014965,197.274804 22.7251964,192.798504 19.6748223,187.0948 C16.6244482,181.391096 15,175.733587 15,160.132009 L15,59.867991 C15,44.2664131 16.6244482,38.6089039 19.6748223,32.9052002 C22.7251964,27.2014965 27.2014965,22.7251964 32.9052002,19.6748223 C38.6089039,16.6244482 44.2664131,15 59.867991,15 Z" id="path-1"/>
        <filter x="-12.1%" y="-10.5%" width="124.2%" height="124.2%" filterUnits="objectBoundingBox" id="filter-2">
            <feMorphology radius="0.5" operator="dilate" in="SourceAlpha" result="shadowSpreadOuter1"/>
            <feOffset dx="0" dy="3" in="shadowSpreadOuter1" result="shadowOffsetOuter1"/>
            <feGaussianBlur stdDeviation="7" in="shadowOffsetOuter1" result="shadowBlurOuter1"/>
            <feComposite in="shadowBlurOuter1" in2="SourceAlpha" operator="out" result="shadowBlurOuter1"/>
            <feColorMatrix values="0 0 0 0 0   0 0 0 0 0   0 0 0 0 0  0 0 0 0.208123907 0" type="matrix" in="shadowBlurOuter1"/>
        </filter>
    </defs>
    <g id="el_Z8el6cP_xM" fill-rule="evenodd">
        <g id="el_dEQsOz7ZRj">
            <use filter="url(#filter-2)" xlink:href="#path-1" id="el_gMX_C66fAR"/>
            <use fill-rule="evenodd" xlink:href="#path-1" id="el_HsTbBCZPFv"/>
        </g>
        <g id="el_fHgpD7g6kg_an_t5tkUr3rt" data-animator-group="true" data-animator-type="0"><path d="M110.5,150 C104.700655,150 100,145.521851 100,140.000546 C100,134.477058 104.700655,130 110.5,130 C116.299345,130 121,134.477058 121,140.000546 C121,145.521851 116.299345,150 110.5,150 L110.5,150 Z M129.881569,98.037388 L114.663194,116.664564 C113.199078,118.454658 111.057849,119.476598 108.776758,119.476598 L108.690176,119.476598 C106.376895,119.45054 104.222346,118.376483 102.780429,116.530873 L88.3312983,98.0294572 L84.2586347,98 C84.0932417,98.5812141 84,99.1941514 84,99.8297481 L84,165.411774 C84,169.050877 86.8904923,172 90.4558767,172 L96.2524015,172 C96.2446313,171.80173 96.2224309,171.605726 96.2224309,171.404057 C96.2224309,163.638674 102.391922,157.341621 110,157.341621 C117.608078,157.341621 123.777569,163.638674 123.777569,171.404057 C123.777569,171.605726 123.755369,171.80173 123.747599,172 L129.544123,172 C133.109508,172 136,169.050877 136,165.411774 L136,99.8297481 C136,99.2077471 135.910088,98.6084054 135.751356,98.037388 L129.881569,98.037388 Z" id="el_fHgpD7g6kg"/></g>
        <g id="el_vCEG-JdYtt_an_nf1psSRra" data-animator-group="true" data-animator-type="0"><path d="M160.189343,68.771133 C160.189343,64.556886 163.681421,61.1406227 167.990867,61.1361585 C167.992009,57.7991355 167.994292,54.6529591 167.995434,52.2556596 C167.997717,49.3360436 165.566162,46.9800384 162.579801,47 L58.3391471,47.7244512 C55.3847505,47.7445403 53,50.091617 53,52.9810994 L53,61.1350424 C57.3140126,61.1350424 60.8106573,64.5546539 60.8106573,68.771133 C60.8106573,72.9876122 57.3140126,76.4061076 53,76.4061076 L53,85.9651716 C53,88.8535379 55.383609,91.2006146 58.3380055,91.2218198 L90.4014275,91.4517284 L104.727054,109.019647 C106.849243,111.623418 110.881286,111.665829 113.061695,109.110048 L128.123638,91.4517284 L162.622039,91.4517284 C165.592418,91.4517284 168,89.0979553 168,86.1950802 L168,81.4998108 C167.993151,81.4998108 167.989726,79.4674634 167.988584,76.4061076 C163.68028,76.3994112 160.189343,72.984264 160.189343,68.771133" id="el_vCEG-JdYtt"/></g>
    </g>
</svg>