<?xml version="1.0" encoding="UTF-8"?>
<svg xmlns:xlink="http://www.w3.org/1999/xlink" width="100px" height="26px" viewBox="0 0 100 26" version="1.1"
     xmlns="http://www.w3.org/2000/svg">
    <!-- Generator: Sketch 55.2 (78181) - https://sketchapp.com -->
    <title>ticksup logo@2x</title>
    <desc>Created with Sketch.</desc>
    <defs>
        <polygon id="path-1" points="0 0.121978397 21.8994348 0.121978397 21.8994348 12.6510346 0 12.6510346"></polygon>
        <polygon id="path-3" points="0 25.878084 99.8532609 25.878084 99.8532609 0.218487395 0 0.218487395"></polygon>
    </defs>
    <g id="💎-Components" stroke="none" stroke-width="1" fill="none" fill-rule="evenodd">
        <g id="sidebar-default" transform="translate(-59.000000, -21.000000)">
            <g id="ticksup-logo">
                <g transform="translate(59.000000, 21.000000)">
                    <path d="M10.8730435,20.5520168 C9.7726087,20.5520168 8.88065217,19.6553445 8.88065217,18.5497983 C8.88065217,17.4438151 9.7726087,16.5473613 10.8730435,16.5473613 C11.9734783,16.5473613 12.8654348,17.4438151 12.8654348,18.5497983 C12.8654348,19.6553445 11.9734783,20.5520168 10.8730435,20.5520168 L10.8730435,20.5520168 Z M14.7667391,10.417479 L11.7863043,14.0096303 C11.4995652,14.3548403 11.0802174,14.551916 10.6334783,14.551916 L10.6165217,14.551916 C10.1634783,14.5468908 9.74152174,14.3397647 9.45913043,13.9838487 L6.62934783,10.4159496 L5.83173913,10.4102689 C5.79934783,10.5223529 5.78108696,10.6405546 5.78108696,10.7631261 L5.78108696,23.4102689 C5.78108696,24.1120504 6.34717391,24.6807731 7.04543478,24.6807731 L8.18065217,24.6807731 C8.17913043,24.6425378 8.17478261,24.6047395 8.17478261,24.5658487 C8.17478261,23.0683361 9.38304348,21.8539832 10.8730435,21.8539832 C12.3630435,21.8539832 13.5713043,23.0683361 13.5713043,24.5658487 C13.5713043,24.6047395 13.5669565,24.6425378 13.5654348,24.6807731 L14.7006522,24.6807731 C15.398913,24.6807731 15.965,24.1120504 15.965,23.4102689 L15.965,10.7631261 C15.965,10.6431765 15.9473913,10.5275966 15.9163043,10.417479 L14.7667391,10.417479 Z"
                          id="Fill-1" fill="#F59121"></path>
                    <g id="Group-5" transform="translate(0.000000, 0.096571)">
                        <mask id="mask-2" fill="white">
                            <use xlink:href="#path-1"></use>
                        </mask>
                        <g id="Clip-4"></g>
                        <path d="M20.4120435,4.38403697 C20.4120435,3.55902857 21.0770435,2.89023866 21.8976957,2.88936471 C21.897913,2.23608739 21.8983478,1.62017143 21.8985652,1.1508605 C21.899,0.579297479 21.4359565,0.118070588 20.8672609,0.121978397 L1.0166087,0.263801681 C0.454,0.267734454 -0.000130434783,0.727213445 -0.000130434783,1.29287731 L-0.000130434783,2.88914622 C0.821391304,2.88914622 1.48726087,3.5585916 1.48726087,4.38403697 C1.48726087,5.20948235 0.821391304,5.87870924 -0.000130434783,5.87870924 L-0.000130434783,7.75005378 C-0.000130434783,8.31549916 0.453782609,8.77497815 1.0163913,8.77912941 L7.12226087,8.82413782 L9.85030435,12.2633479 C10.2544348,12.773079 11.0222609,12.7813815 11.4374783,12.2810454 L14.3057391,8.82413782 L20.8753043,8.82413782 C21.4409565,8.82413782 21.8994348,8.3633479 21.8994348,7.79506218 L21.8994348,6.87588571 C21.8981304,6.87588571 21.8974783,6.47802017 21.8972609,5.87870924 C21.0768261,5.87739832 20.4120435,5.20882689 20.4120435,4.38403697"
                              id="Fill-3" fill="#EE4037" mask="url(#mask-2)"></path>
                    </g>
                    <polygon id="Fill-6" fill="#FFFFFF"
                             points="37.766087 7.47681345 37.766087 10.1757882 33.921087 10.1757882 33.921087 21.7888303 31.113913 21.7888303 31.113913 10.1757882 27.2893478 10.1757882 27.2893478 7.47681345"></polygon>
                    <mask id="mask-4" fill="white">
                        <use xlink:href="#path-3"></use>
                    </mask>
                    <g id="Clip-9"></g>
                    <path d="M39.2104348,21.7890924 L41.8347826,21.7890924 L41.8347826,11.5660672 L39.2104348,11.5660672 L39.2104348,21.7890924 Z M40.5123913,10.3392605 C40.0780435,10.3392605 39.7017391,10.1791092 39.3832609,9.85880672 C39.0645652,9.5385042 38.9052174,9.16030252 38.9052174,8.72398319 C38.9052174,8.28788235 39.0645652,7.90618487 39.3832609,7.57910924 C39.7017391,7.25203361 40.0780435,7.08816807 40.5123913,7.08816807 C40.9597826,7.08816807 41.3430435,7.25203361 41.6617391,7.57910924 C41.9802174,7.90618487 42.1397826,8.28788235 42.1397826,8.72398319 C42.1397826,9.16030252 41.9802174,9.5385042 41.6617391,9.85880672 C41.3430435,10.1791092 40.9597826,10.3392605 40.5123913,10.3392605 L40.5123913,10.3392605 Z"
                          id="Fill-8" fill="#FFFFFF" mask="url(#mask-4)"></path>
                    <path d="M49.4835652,22.0752454 C47.9509565,22.0752454 46.6726957,21.5572118 45.6487826,20.521363 C44.6246522,19.4855143 44.112913,18.2040857 44.112913,16.6775143 C44.112913,15.1511613 44.6246522,13.8695143 45.6487826,12.8336655 C46.6726957,11.7978168 47.9509565,11.2797832 49.4835652,11.2797832 C50.4733478,11.2797832 51.3757391,11.5183714 52.1892174,11.9953294 C53.0031304,12.4725059 53.620087,13.1131109 54.0403043,13.917363 L51.7824783,15.2462034 C51.579,14.8240857 51.2703043,14.4895815 50.8568261,14.2442202 C50.442913,13.9988588 49.9783478,13.8765059 49.4633478,13.8765059 C48.6766087,13.8765059 48.0255217,14.1389092 47.5103043,14.6634975 C46.9946522,15.1883042 46.7372609,15.859716 46.7372609,16.6775143 C46.7372609,17.4819849 46.9946522,18.146405 47.5103043,18.6709933 C48.0255217,19.1958 48.6766087,19.4579849 49.4633478,19.4579849 C49.9922609,19.4579849 50.4631304,19.3389092 50.8772609,19.100321 C51.2907391,18.8619513 51.5994348,18.5311613 51.8026957,18.1086067 L54.0811739,19.4171277 C53.6335652,20.2215983 53.0031304,20.8656992 52.1892174,21.3494303 C51.3757391,21.8331613 50.4733478,22.0752454 49.4835652,22.0752454"
                          id="Fill-10" fill="#FFFFFF" mask="url(#mask-4)"></path>
                    <polygon id="Fill-11" fill="#FFFFFF" mask="url(#mask-4)"
                             points="64.5172174 21.7889176 61.4656957 21.7889176 57.7633043 17.1440941 57.7633043 21.7889176 55.1389565 21.7889176 55.1389565 7.47690084 57.7633043 7.47690084 57.7633043 16.0815899 61.2622174 11.5658924 64.3950435 11.5658924 60.3065652 16.6164471"></polygon>
                    <path d="M68.2400435,14.4691529 C68.2400435,14.7420437 68.4196087,14.9635899 68.7789565,15.1337916 C69.1383043,15.3042118 69.5756957,15.4543126 70.0913478,15.5836571 C70.6065652,15.7132202 71.1217826,15.8768672 71.6374348,16.0743798 C72.1526522,16.2721109 72.5900435,16.6026824 72.9493913,17.0658756 C73.3085217,17.5295059 73.4887391,18.1084975 73.4887391,18.8039429 C73.4887391,19.8537748 73.0987391,20.6613042 72.3189565,21.2267496 C71.5389565,21.792195 70.5656957,22.0753546 69.3996087,22.0753546 C67.310913,22.0753546 65.887,21.2643294 65.1276522,19.6420605 L67.405913,18.3538588 C67.7039565,19.2402622 68.3687391,19.6829176 69.3996087,19.6829176 C70.3354783,19.6829176 70.8033043,19.3899261 70.8033043,18.8039429 C70.8033043,18.5312706 70.6233043,18.3099429 70.2641739,18.1393042 C69.9046087,17.9691025 69.4674348,17.8155059 68.952,17.6791697 C68.4363478,17.5430521 67.9211304,17.3726319 67.405913,17.1683462 C66.8902609,16.9636235 66.4528696,16.6402622 66.0937391,16.1969513 C65.7343913,15.7542958 65.5546087,15.1986824 65.5546087,14.5305479 C65.5546087,13.5220101 65.9241739,12.7282454 66.6633043,12.1485983 C67.4024348,11.5696067 68.3213478,11.2796739 69.4200435,11.2796739 C70.247,11.2796739 70.9996087,11.4671361 71.6778696,11.8420605 C72.3561304,12.2169849 72.8915652,12.751842 73.2852609,13.4470689 L71.0474348,14.6738756 C70.722,13.9786487 70.1793913,13.6310353 69.4200435,13.6310353 C69.0806957,13.6310353 68.7993913,13.706195 68.5756957,13.8558588 C68.352,14.0061782 68.2400435,14.2104639 68.2400435,14.4691529"
                          id="Fill-12" fill="#FFFFFF" mask="url(#mask-4)"></path>
                    <path d="M80.7103261,22.0752454 C79.123587,22.0752454 77.8216304,21.6251613 76.8044565,20.7256487 C75.7872826,19.8261361 75.2788043,18.6198672 75.2788043,17.106842 L75.2788043,7.4767916 L78.0657609,7.4767916 L78.0657609,16.8818 C78.0657609,17.6316487 78.2792391,18.2246235 78.706413,18.6607244 C79.1338043,19.0970437 79.801413,19.3148756 80.7103261,19.3148756 C81.6188043,19.3148756 82.2868478,19.0970437 82.7142391,18.6607244 C83.141413,18.2246235 83.3548913,17.6316487 83.3548913,16.8818 L83.3548913,7.4767916 L86.1622826,7.4767916 L86.1622826,17.106842 C86.1622826,18.6198672 85.6538043,19.8261361 84.6366304,20.7256487 C83.6194565,21.6251613 82.3103261,22.0752454 80.7103261,22.0752454"
                          id="Fill-13" fill="#FFFFFF" mask="url(#mask-4)"></path>
                    <path d="M92.3872391,18.7527076 C92.9163696,19.291279 93.5874565,19.560237 94.4013696,19.560237 C95.2150652,19.560237 95.889413,19.291279 96.4255,18.7527076 C96.9611522,18.2143546 97.2289783,17.5226235 97.2289783,16.6775143 C97.2289783,15.832405 96.9611522,15.1408924 96.4255,14.6021025 C95.889413,14.0637496 95.2150652,13.7945731 94.4013696,13.7945731 C93.5874565,13.7945731 92.9163696,14.0637496 92.3872391,14.6021025 C91.8583261,15.1408924 91.5939783,15.832405 91.5939783,16.6775143 C91.5939783,17.5226235 91.8583261,18.2143546 92.3872391,18.7527076 M94.8896304,11.2797832 C96.259413,11.2797832 97.4289783,11.8010941 98.3987609,12.8439345 C99.3681087,13.8867748 99.8533261,15.1644891 99.8533261,16.6775143 C99.8533261,18.1905395 99.3681087,19.4682538 98.3987609,20.5110941 C97.4289783,21.553716 96.259413,22.0752454 94.8896304,22.0752454 C93.4655,22.0752454 92.3668043,21.5777496 91.5939783,20.5825395 L91.5939783,25.8780185 L88.9696304,25.8780185 L88.9696304,11.5660017 L91.5939783,11.5660017 L91.5939783,12.7722706 C92.3668043,11.7774975 93.4655,11.2797832 94.8896304,11.2797832"
                          id="Fill-14" fill="#FFFFFF" mask="url(#mask-4)"></path>
                </g>
            </g>
        </g>
    </g>
</svg>
